<svg xmlns="http://www.w3.org/2000/svg" xml:space="preserve" width="1500" height="1500" data-id="lg_V9TigC9lQWEZvenxx1" data-version="1" viewBox="0 0 1500 1500"><path fill="#0a83e8" stroke="transparent" d="M0 0h1500v1500H0z"/><g data-padding="20"><g transform="translate(-571.429 -585.65)scale(1.72194)"><rect width="424.042" height="92.66" x="166.801" y="342.295" fill="none" rx="0" ry="0" transform="matrix(.97 0 0 .97 474.33 402.27)"/><path fill="#fff6f0" d="M656.721 753.755h7.314q.95 0 1.668.514t.96 1.387l17.655 52.982h-7.237l-14.24-45.028q-.32-1.106-.678-2.26-.36-1.154-.67-2.192h-2.23q-.32 1.038-.64 2.192-.31 1.154-.709 2.26l-14.24 45.028h-7.236l17.654-52.982q.243-.873.951-1.387.718-.514 1.678-.514m-10.34 31.65h27.84v6.044h-27.84Zm64.834-32.61q3.492 0 6.004.165 2.503.155 4.608.514 2.114.359 4.336.91l-.718 5.336q-2.386-.242-4.414-.397-2.027-.165-4.335-.243-2.3-.077-5.48-.077-5.336 0-8.44 2.066-3.094 2.066-4.413 6.916-1.31 4.86-1.31 13.21t1.31 13.203q1.32 4.85 4.413 6.916 3.104 2.066 8.44 2.066 5.082 0 8.545-.194 3.463-.204 6.8-.68l.717 5.249q-3.424.96-7.042 1.397-3.618.436-9.02.436-7.877 0-12.61-2.745t-6.839-8.943q-2.115-6.208-2.115-16.704 0-10.505 2.115-16.703 2.104-6.208 6.838-8.953t12.61-2.745m44.446 0q3.502 0 6.004.165 2.513.155 4.618.514t4.335.91l-.717 5.336q-2.387-.242-4.414-.397-2.027-.165-4.336-.243-2.308-.077-5.49-.077-5.325 0-8.43 2.066-3.103 2.066-4.413 6.916-1.31 4.86-1.31 13.21t1.31 13.203 4.414 6.916 8.43 2.066q5.092 0 8.555-.194 3.462-.204 6.8-.68l.717 5.249q-3.424.96-7.042 1.397-3.618.436-9.03.436-7.868 0-12.6-2.745t-6.849-8.943q-2.105-6.208-2.105-16.704 0-10.505 2.105-16.703 2.114-6.208 6.848-8.953 4.733-2.745 12.6-2.745m44.64-.078q5.964 0 10.135 1.436 4.181 1.426 6.684 4.733 2.502 3.298 3.656 8.789 1.155 5.48 1.155 13.52 0 8.033-1.155 13.523-1.154 5.48-3.656 8.788-2.503 3.298-6.684 4.734-4.17 1.426-10.136 1.426t-10.146-1.426q-4.17-1.436-6.723-4.734-2.54-3.307-3.695-8.788-1.155-5.49-1.155-13.522 0-8.041 1.155-13.521 1.154-5.49 3.695-8.79 2.552-3.306 6.723-4.732 4.18-1.436 10.146-1.436m0 6.286q-5.413 0-8.556 2.066t-4.452 6.877-1.31 13.25q0 8.352 1.31 13.202t4.452 6.916 8.556 2.066q5.403 0 8.545-2.066t4.453-6.916q1.32-4.85 1.32-13.202 0-8.44-1.32-13.25-1.31-4.811-4.452-6.877t-8.546-2.066m66.01-5.248h6.993v33.882q0 7.954-1.91 12.804-1.902 4.85-6.2 7.042-4.297 2.183-11.533 2.183-7.4 0-11.853-2.183-4.453-2.192-6.44-7.042t-1.99-12.804v-33.882h6.994v33.882q0 5.888 1.232 9.34 1.242 3.464 4.103 4.938 2.862 1.465 7.634 1.465t7.595-1.465q2.823-1.474 4.094-4.937 1.28-3.453 1.28-9.34Zm55.755 0h6.916v52.099q0 2.784-2.707 2.784h-6.838q-1.193 0-1.91-.563-.709-.553-1.194-1.668l-18.527-38.897q-.718-1.591-1.668-3.58-.96-1.988-1.436-3.657h-1.27q.154 1.746.232 3.58.087 1.833.087 3.657v41.128h-7.003v-52.1q0-2.783 2.784-2.783h6.606q1.193 0 1.9.553.718.553 1.194 1.668l17.984 37.947q.873 1.668 1.862 3.773 1 2.105 1.872 4.18h1.348q-.077-2.153-.155-4.22-.077-2.065-.077-4.131Zm33.406 0h6.994v54.883h-6.994Zm-17.663 0h42.398v6.198h-42.398Zm81.227 0h7.391l-18.527 36.268h-6.285L983 753.755h7.48l11.532 23.144q.718 1.513 1.31 3.104.601 1.59 1.154 3.095h.553q.563-1.504 1.193-3.095.64-1.59 1.28-3.026Zm-17.82 31.33h6.995v23.553h-6.994Zm-402.048-66.618h-104a7.8 7.8 0 0 0-7.8 7.8v46.8a7.8 7.8 0 0 0 7.8 7.8h15.6v-5.2h-15.6a2.6 2.6 0 0 1-2.6-2.6v-46.8a2.6 2.6 0 0 1 2.6-2.6h38.558a36.348 36.348 0 0 0 10.842 70.07v13.13a7.8 7.8 0 0 0-7.8 7.8v18.2h5.2v-18.2a2.6 2.6 0 0 1 2.6-2.6h5.2a2.6 2.6 0 0 1 2.6 2.6v18.2h5.2v-18.2a7.8 7.8 0 0 0-7.8-7.8v-13.13a36.348 36.348 0 0 0 10.842-70.07h38.558a2.6 2.6 0 0 1 2.6 2.6v46.8a2.6 2.6 0 0 1-2.6 2.6h-15.6v5.2h15.6a7.8 7.8 0 0 0 7.8-7.8v-46.8a7.8 7.8 0 0 0-7.8-7.8m-20.8 39c0 17.23-13.97 31.2-31.2 31.2s-31.2-13.97-31.2-31.2 13.97-31.2 31.2-31.2 31.2 13.97 31.2 31.2"/><path fill="#fff6f0" d="M541.161 734.847a23.4 23.4 0 0 0-16.64 16.77l5.044 1.3a18.2 18.2 0 0 1 12.922-13.052Zm45.162 25.844 3.432 3.9a18.2 18.2 0 0 1 5.2-3.224 2.6 2.6 0 0 0 1.612-2.392V740.28a2.6 2.6 0 0 0-1.612-2.392 18.2 18.2 0 0 1-10.062-10.036 2.6 2.6 0 0 0-2.366-1.612h-6.76v5.2h5.044a23.4 23.4 0 0 0 10.556 10.556v15.288a23.4 23.4 0 0 0-5.044 3.38m-72.8-29.198h5.044v-5.2h-6.734a2.6 2.6 0 0 0-2.392 1.638 18.2 18.2 0 0 1-10.036 10.036 2.6 2.6 0 0 0-1.638 2.392V759a2.6 2.6 0 0 0 1.612 2.392 18.2 18.2 0 0 1 6.994 5.018l3.926-3.38a23.4 23.4 0 0 0-7.332-5.72v-15.288a23.4 23.4 0 0 0 10.556-10.556m31.044 10.4v2.6h-2.6a5.2 5.2 0 0 0-5.2 5.2v5.2a5.2 5.2 0 0 0 5.2 5.2h10.4v5.2h-10.4v-2.6h-5.2v2.6a5.2 5.2 0 0 0 5.2 5.2h2.6v2.6h5.2v-2.6h2.6a5.2 5.2 0 0 0 5.2-5.2v-5.2a5.2 5.2 0 0 0-5.2-5.2h-10.4v-5.2h10.4v2.6h5.2v-2.6a5.2 5.2 0 0 0-5.2-5.2h-2.6v-2.6Z"/></g><path fill="transparent" stroke="transparent" stroke-width="1.786" d="M250 648.214h1000v203.572H250z"/></g></svg>